<svg width="64" height="48" viewBox="0 0 64 48" fill="none" xmlns="http://www.w3.org/2000/svg">
<path d="M31.9987 3.99994C30.5135 3.99994 29.0892 4.4916 28.039 5.36676C26.9889 6.24192 26.3989 7.42888 26.3989 8.66654C26.3989 9.9042 26.9889 11.0912 28.039 11.9663C29.0892 12.8415 30.5135 13.3331 31.9987 13.3331C33.4838 13.3331 34.9081 12.8415 35.9583 11.9663C37.0085 11.0912 37.5984 9.9042 37.5984 8.66654C37.5984 7.42888 37.0085 6.24192 35.9583 5.36676C34.9081 4.4916 33.4838 3.99994 31.9987 3.99994ZM21.5991 8.66654C21.5991 6.36803 22.6948 4.16366 24.6451 2.53837C26.5954 0.913079 29.2405 0 31.9987 0C34.7568 0 37.402 0.913079 39.3523 2.53837C41.3026 4.16366 42.3982 6.36803 42.3982 8.66654C42.3982 10.9651 41.3026 13.1694 39.3523 14.7947C37.402 16.42 34.7568 17.3331 31.9987 17.3331C29.2405 17.3331 26.5954 16.42 24.6451 14.7947C22.6948 13.1694 21.5991 10.9651 21.5991 8.66654ZM9.5996 9.3332C8.32661 9.3332 7.10577 9.75462 6.20563 10.5048C5.30549 11.2549 4.7998 12.2723 4.7998 13.3331C4.7998 14.394 5.30549 15.4114 6.20563 16.1615C7.10577 16.9117 8.32661 17.3331 9.5996 17.3331C10.8726 17.3331 12.0934 16.9117 12.9936 16.1615C13.8937 15.4114 14.3994 14.394 14.3994 13.3331C14.3994 12.2723 13.8937 11.2549 12.9936 10.5048C12.0934 9.75462 10.8726 9.3332 9.5996 9.3332ZM0 13.3331C0 11.2114 1.01138 9.17664 2.81166 7.67637C4.61193 6.1761 7.05363 5.33326 9.5996 5.33326C12.1456 5.33326 14.5873 6.1761 16.3875 7.67637C18.1878 9.17664 19.1992 11.2114 19.1992 13.3331C19.1992 15.4548 18.1878 17.4896 16.3875 18.9899C14.5873 20.4902 12.1456 21.333 9.5996 21.333C7.05363 21.333 4.61193 20.4902 2.81166 18.9899C1.01138 17.4896 0 15.4548 0 13.3331ZM49.5979 13.3331C49.5979 12.2723 50.1036 11.2549 51.0038 10.5048C51.9039 9.75462 53.1247 9.3332 54.3977 9.3332C55.6707 9.3332 56.8916 9.75462 57.7917 10.5048C58.6918 11.2549 59.1975 12.2723 59.1975 13.3331C59.1975 14.394 58.6918 15.4114 57.7917 16.1615C56.8916 16.9117 55.6707 17.3331 54.3977 17.3331C53.1247 17.3331 51.9039 16.9117 51.0038 16.1615C50.1036 15.4114 49.5979 14.394 49.5979 13.3331ZM54.3977 5.33326C51.8518 5.33326 49.4101 6.1761 47.6098 7.67637C45.8095 9.17664 44.7981 11.2114 44.7981 13.3331C44.7981 15.4548 45.8095 17.4896 47.6098 18.9899C49.4101 20.4902 51.8518 21.333 54.3977 21.333C56.9437 21.333 59.3854 20.4902 61.1857 18.9899C62.9859 17.4896 63.9973 15.4548 63.9973 13.3331C63.9973 11.2114 62.9859 9.17664 61.1857 7.67637C59.3854 6.1761 56.9437 5.33326 54.3977 5.33326ZM17.5993 25.9996C17.5993 23.4237 20.108 21.333 23.199 21.333H40.7983C43.8894 21.333 46.3981 23.4237 46.3981 25.9996V35.9995C46.3981 39.182 44.881 42.2342 42.1806 44.4846C39.4802 46.7351 35.8176 47.9993 31.9987 47.9993C28.1797 47.9993 24.5172 46.7351 21.8168 44.4846C19.1163 42.2342 17.5993 39.182 17.5993 35.9995V25.9996ZM23.199 25.333C22.9869 25.333 22.7834 25.4032 22.6334 25.5282C22.4833 25.6533 22.3991 25.8228 22.3991 25.9996V35.9995C22.3991 38.1212 23.4104 40.156 25.2107 41.6563C27.011 43.1565 29.4527 43.9994 31.9987 43.9994C34.5446 43.9994 36.9863 43.1565 38.7866 41.6563C40.5869 40.156 41.5983 38.1212 41.5983 35.9995V25.9996C41.5983 25.8228 41.514 25.6533 41.364 25.5282C41.2139 25.4032 41.0105 25.333 40.7983 25.333H23.199ZM14.7514 23.941C14.5189 24.597 14.4015 25.2832 14.3994 25.9996V28.1596L5.39498 30.1702C5.19004 30.2159 5.01525 30.3275 4.90904 30.4805C4.80283 30.6335 4.77389 30.8154 4.8286 30.9862L7.1069 38.0715C7.69126 39.889 9.02567 41.4766 10.8756 42.5555C12.7255 43.6343 14.9725 44.1351 17.2217 43.97C18.2296 45.266 19.4776 46.4207 20.9111 47.3887C19.049 47.9032 17.0804 48.0952 15.1261 47.9529C13.1717 47.8106 11.2729 47.337 9.54604 46.5612C7.81922 45.7853 6.30085 44.7236 5.0841 43.4412C3.86735 42.1588 2.97789 40.6826 2.4703 39.1034L0.191992 32.0209C-0.192148 30.8257 0.00903502 29.5522 0.751304 28.4806C1.49357 27.409 2.71616 26.6269 4.15023 26.3063L14.7514 23.941ZM43.0862 47.3887C43.3529 47.4633 43.6227 47.5309 43.8958 47.5913C47.5845 48.4147 51.5146 47.9834 54.8216 46.3921C58.1287 44.8009 60.5418 42.18 61.5302 39.1061L63.8085 32.0235C63.9992 31.4316 64.0481 30.8141 63.9524 30.2063C63.8566 29.5986 63.6182 29.0125 63.2506 28.4816C62.883 27.9507 62.3935 27.4853 61.8101 27.1121C61.2267 26.7388 60.5607 26.465 59.8503 26.3063L49.2459 23.9383C49.4785 24.5961 49.5958 25.2832 49.5979 25.9996V28.1596L58.6088 30.1702C58.8131 30.2165 58.9871 30.3283 59.0927 30.4812C59.1983 30.6342 59.2268 30.8158 59.1719 30.9862L56.8936 38.0715C56.3092 39.8895 54.9743 41.4775 53.1237 42.5564C51.2731 43.6352 49.0253 44.1358 46.7756 43.97C45.7692 45.2641 44.524 46.4179 43.0862 47.3887Z" fill="white"/>
</svg>
