<svg width="64" height="64" viewBox="0 0 64 64" fill="none" xmlns="http://www.w3.org/2000/svg">
<path d="M4.57143 59.8401H21.4491V38.7203C21.4491 37.7691 21.8042 36.9718 22.5143 36.3284C23.2213 35.6822 24.0975 35.3591 25.1429 35.3591H38.8571C39.9025 35.3591 40.7802 35.6822 41.4903 36.3284C42.1973 36.9718 42.5509 37.7691 42.5509 38.7203V59.8401H59.4286V23.6823C59.4286 23.2552 59.3265 22.8669 59.1223 22.5175C58.9181 22.1681 58.6392 21.863 58.2857 21.6023L33.6731 4.72148C33.2038 4.34987 32.6461 4.16406 32 4.16406C31.3539 4.16406 30.7977 4.34987 30.3314 4.72148L5.71429 21.6023C5.36381 21.8686 5.08495 22.1736 4.87771 22.5175C4.67048 22.8614 4.56838 23.2497 4.57143 23.6823V59.8401ZM0 59.8401V23.6823C0 22.6174 0.262095 21.6093 0.786285 20.658C1.31048 19.7068 2.03276 18.9234 2.95314 18.3077L27.5703 1.34365C28.8594 0.447884 30.3314 0 31.9863 0C33.6411 0 35.1223 0.447884 36.4297 1.34365L61.0469 18.3035C61.9703 18.9192 62.6926 19.704 63.2137 20.658C63.7379 21.6093 64 22.6174 64 23.6823V59.8401C64 60.955 63.5444 61.927 62.6331 62.7562C61.7219 63.5854 60.6537 64 59.4286 64H41.6731C40.6248 64 39.747 63.6783 39.04 63.0349C38.333 62.3887 37.9794 61.59 37.9794 60.6388V39.5232H26.0206V60.6388C26.0206 61.5928 25.667 62.3915 24.96 63.0349C24.253 63.6783 23.3768 64 22.3314 64H4.57143C3.34629 64 2.27809 63.5854 1.36686 62.7562C0.455618 61.927 0 60.955 0 59.8401Z" fill="white"/>
</svg>
