<svg width="64" height="64" viewBox="0 0 64 64" fill="none" xmlns="http://www.w3.org/2000/svg">
<path d="M0 59.8401V23.6823C0 22.6174 0.262095 21.6093 0.786285 20.658C1.31048 19.7068 2.03276 18.9234 2.95314 18.3077L27.5703 1.34365C28.8594 0.447884 30.3314 0 31.9863 0C33.6411 0 35.1223 0.447884 36.4297 1.34365L61.0469 18.3035C61.9703 18.9192 62.6926 19.704 63.2137 20.658C63.7379 21.6093 64 22.6174 64 23.6823V59.8401C64 60.955 63.5444 61.927 62.6331 62.7562C61.7219 63.5854 60.6537 64 59.4286 64H43.9589C42.9105 64 42.0328 63.6783 41.3257 63.0349C40.6187 62.3887 40.2651 61.59 40.2651 60.6388V40.8003C40.2651 39.849 39.9116 39.0517 39.2046 38.4083C38.4945 37.7621 37.6168 37.4391 36.5714 37.4391H27.4286C26.3832 37.4391 25.507 37.7621 24.8 38.4083C24.0899 39.0517 23.7349 39.849 23.7349 40.8003V60.643C23.7349 61.5942 23.3813 62.3915 22.6743 63.0349C21.9672 63.6783 21.091 64 20.0457 64H4.57143C3.34629 64 2.27809 63.5854 1.36686 62.7562C0.455618 61.927 0 60.955 0 59.8401Z" fill="white"/>
</svg>
