<svg width="36" height="42" viewBox="0 0 36 42" fill="none" xmlns="http://www.w3.org/2000/svg">
<path d="M3.6 14.2994C3.6 10.507 5.11714 6.86986 7.81766 4.1882C10.5182 1.50654 14.1809 0 18 0C21.8191 0 25.4818 1.50654 28.1823 4.1882C30.8829 6.86986 32.4 10.507 32.4 14.2994V22.6949L36 28.0572V35.7485H25.9002C25.4908 37.5247 24.4864 39.1103 23.0514 40.246C21.6165 41.3816 19.8358 42 18.0009 42C16.166 42 14.3853 41.3816 12.9504 40.246C11.5154 39.1103 10.511 37.5247 10.1016 35.7485H0V28.0572L3.6 22.6949V14.2994ZM13.8744 35.7485C14.2243 36.5462 14.801 37.225 15.5339 37.7018C16.2668 38.1786 17.1239 38.4326 18 38.4326C18.8761 38.4326 19.7332 38.1786 20.4661 37.7018C21.199 37.225 21.7757 36.5462 22.1256 35.7485H13.8744ZM18 3.57485C15.1357 3.57485 12.3886 4.70476 10.3632 6.716C8.33785 8.72725 7.2 11.4551 7.2 14.2994V23.7781L3.6 29.1404V32.1737H32.4V29.1404L28.8 23.7781V14.2994C28.8 11.4551 27.6621 8.72725 25.6368 6.716C23.6114 4.70476 20.8643 3.57485 18 3.57485Z" fill="white"/>
</svg>
