<svg width="36" height="42" viewBox="0 0 36 42" fill="none" xmlns="http://www.w3.org/2000/svg">
<path d="M11.29 37.1197C11.7221 38.5301 12.6083 39.7667 13.8172 40.6459C15.026 41.5251 16.4929 42 18 42C19.5071 42 20.974 41.5251 22.1828 40.6459C23.3917 39.7667 24.2779 38.5301 24.71 37.1197H11.29ZM0 35.166H36V29.305L32 23.444V13.6757C32 11.8798 31.6379 10.1014 30.9343 8.44222C30.2307 6.78301 29.1995 5.27542 27.8995 4.00551C26.5995 2.73561 25.0561 1.72827 23.3576 1.041C21.659 0.353732 19.8385 0 18 0C16.1615 0 14.341 0.353732 12.6424 1.041C10.9439 1.72827 9.40053 2.73561 8.1005 4.00551C6.80048 5.27542 5.76925 6.78301 5.06569 8.44222C4.36212 10.1014 4 11.8798 4 13.6757V23.444L0 29.305V35.166Z" fill="white"/>
</svg>
