<svg width="40" height="46" viewBox="0 0 40 46" fill="none" xmlns="http://www.w3.org/2000/svg">
<path d="M3.6 18.2994C3.6 14.507 5.11714 10.8699 7.81766 8.1882C10.5182 5.50654 14.1809 4 18 4C21.8191 4 25.4818 5.50654 28.1823 8.1882C30.8829 10.8699 32.4 14.507 32.4 18.2994V26.6949L36 32.0572V39.7485H25.9002C25.4908 41.5247 24.4864 43.1103 23.0514 44.246C21.6165 45.3816 19.8358 46 18.0009 46C16.166 46 14.3853 45.3816 12.9504 44.246C11.5154 43.1103 10.511 41.5247 10.1016 39.7485H0V32.0572L3.6 26.6949V18.2994ZM13.8744 39.7485C14.2243 40.5462 14.801 41.225 15.5339 41.7018C16.2668 42.1786 17.1239 42.4326 18 42.4326C18.8761 42.4326 19.7332 42.1786 20.4661 41.7018C21.199 41.225 21.7757 40.5462 22.1256 39.7485H13.8744ZM18 7.57485C15.1357 7.57485 12.3886 8.70476 10.3632 10.716C8.33785 12.7272 7.2 15.4551 7.2 18.2994V27.7781L3.6 33.1404V36.1737H32.4V33.1404L28.8 27.7781V18.2994C28.8 15.4551 27.6621 12.7272 25.6368 10.716C23.6114 8.70476 20.8643 7.57485 18 7.57485Z" fill="white"/>
<circle cx="36" cy="4" r="4" fill="#45F422"/>
</svg>
