<svg width="56" height="64" viewBox="0 0 56 64" fill="none" xmlns="http://www.w3.org/2000/svg">
<path fill-rule="evenodd" clip-rule="evenodd" d="M31.0428 62.3687L31.0106 62.3746L30.8025 62.4773L30.7439 62.489L30.7029 62.4773L30.4948 62.3746C30.4635 62.3648 30.4401 62.3697 30.4244 62.3893L30.4127 62.4186L30.3629 63.6743L30.3776 63.733L30.4069 63.7712L30.7117 63.9883L30.7556 64L30.7908 63.9883L31.0956 63.7712L31.1307 63.7242L31.1425 63.6743L31.0926 62.4216C31.0848 62.3903 31.0682 62.3727 31.0428 62.3687ZM31.8195 62.0372L31.7814 62.0431L31.2392 62.3159L31.2099 62.3453L31.2011 62.3776L31.2538 63.6391L31.2685 63.6743L31.2919 63.6949L31.881 63.9677C31.9181 63.9775 31.9465 63.9697 31.966 63.9443L31.9777 63.9032L31.8781 62.1018C31.8683 62.0666 31.8488 62.045 31.8195 62.0372ZM29.724 62.0431C29.7111 62.0353 29.6957 62.0327 29.6809 62.036C29.6662 62.0393 29.6533 62.0481 29.6449 62.0607L29.6273 62.1018L29.5276 63.9032C29.5296 63.9384 29.5462 63.9619 29.5775 63.9736L29.6214 63.9677L30.2105 63.6949L30.2398 63.6714L30.2515 63.6391L30.3014 62.3776L30.2926 62.3423L30.2633 62.313L29.724 62.0431Z" fill="white"/>
<path fill-rule="evenodd" clip-rule="evenodd" d="M24.9089 5.6239e-08C20.9366 0.00033884 17.022 0.951651 13.4916 2.77457C9.96127 4.59748 6.91756 7.23914 4.61444 10.4792C2.31132 13.7192 0.815578 17.4636 0.251998 21.4C-0.311582 25.3364 0.0733448 29.3506 1.37467 33.1078C2.67599 36.865 4.85597 40.2561 7.73272 42.9984C10.6095 45.7406 14.0996 47.7544 17.9119 48.8717C21.7242 49.989 25.7481 50.1774 29.6479 49.4212C33.5478 48.6651 37.2104 46.9862 40.3303 44.5248L51.0333 55.2394C51.586 55.7738 52.3263 56.0695 53.0948 56.0629C53.8632 56.0562 54.5982 55.7476 55.1416 55.2036C55.685 54.6597 55.9932 53.9238 55.9999 53.1546C56.0066 52.3853 55.7112 51.6442 55.1773 51.0909L44.4744 40.3763C47.3699 36.699 49.1728 32.2799 49.6767 27.6248C50.1806 22.9696 49.3651 18.2665 47.3237 14.0536C45.2822 9.84077 42.0972 6.28838 38.1332 3.80301C34.1692 1.31763 29.5862 -0.000314347 24.9089 5.6239e-08ZM5.8593 24.9381C5.8593 19.8803 7.86631 15.0297 11.4388 11.4534C15.0113 7.87698 19.8567 5.86779 24.9089 5.86779C29.9612 5.86779 34.8066 7.87698 38.379 11.4534C41.9515 15.0297 43.9586 19.8803 43.9586 24.9381C43.9586 29.9959 41.9515 34.8465 38.379 38.4229C34.8066 41.9992 29.9612 44.0084 24.9089 44.0084C19.8567 44.0084 15.0113 41.9992 11.4388 38.4229C7.86631 34.8465 5.8593 29.9959 5.8593 24.9381Z" fill="white"/>
</svg>
